<svg id="visual" viewBox="0 0 900 600" width="900" height="600" xmlns="http://www.w3.org/2000/svg" xmlns:xlink="http://www.w3.org/1999/xlink" version="1.1"><path d="M0 91L13.7 93C27.3 95 54.7 99 82 110C109.3 121 136.7 139 163.8 133C191 127 218 97 245.2 97C272.3 97 299.7 127 327 130C354.3 133 381.7 109 409 93C436.3 77 463.7 69 491 68C518.3 67 545.7 73 573 84C600.3 95 627.7 111 654.8 122C682 133 709 139 736.2 127C763.3 115 790.7 85 818 87C845.3 89 872.7 123 886.3 140L900 157L900 0L886.3 0C872.7 0 845.3 0 818 0C790.7 0 763.3 0 736.2 0C709 0 682 0 654.8 0C627.7 0 600.3 0 573 0C545.7 0 518.3 0 491 0C463.7 0 436.3 0 409 0C381.7 0 354.3 0 327 0C299.7 0 272.3 0 245.2 0C218 0 191 0 163.8 0C136.7 0 109.3 0 82 0C54.7 0 27.3 0 13.7 0L0 0Z" fill="#6198ff"></path><path d="M0 217L13.7 209C27.3 201 54.7 185 82 185C109.3 185 136.7 201 163.8 203C191 205 218 193 245.2 196C272.3 199 299.7 217 327 219C354.3 221 381.7 207 409 193C436.3 179 463.7 165 491 163C518.3 161 545.7 171 573 187C600.3 203 627.7 225 654.8 237C682 249 709 251 736.2 231C763.3 211 790.7 169 818 166C845.3 163 872.7 199 886.3 217L900 235L900 155L886.3 138C872.7 121 845.3 87 818 85C790.7 83 763.3 113 736.2 125C709 137 682 131 654.8 120C627.7 109 600.3 93 573 82C545.7 71 518.3 65 491 66C463.7 67 436.3 75 409 91C381.7 107 354.3 131 327 128C299.7 125 272.3 95 245.2 95C218 95 191 125 163.8 131C136.7 137 109.3 119 82 108C54.7 97 27.3 93 13.7 91L0 89Z" fill="#3c80ff"></path><path d="M0 415L13.7 393C27.3 371 54.7 327 82 314C109.3 301 136.7 319 163.8 330C191 341 218 345 245.2 357C272.3 369 299.7 389 327 386C354.3 383 381.7 357 409 329C436.3 301 463.7 271 491 260C518.3 249 545.7 257 573 293C600.3 329 627.7 393 654.8 405C682 417 709 377 736.2 347C763.3 317 790.7 297 818 295C845.3 293 872.7 309 886.3 317L900 325L900 233L886.3 215C872.7 197 845.3 161 818 164C790.7 167 763.3 209 736.2 229C709 249 682 247 654.8 235C627.7 223 600.3 201 573 185C545.7 169 518.3 159 491 161C463.7 163 436.3 177 409 191C381.7 205 354.3 219 327 217C299.7 215 272.3 197 245.2 194C218 191 191 203 163.8 201C136.7 199 109.3 183 82 183C54.7 183 27.3 199 13.7 207L0 215Z" fill="#0066ff"></path><path d="M0 469L13.7 455C27.3 441 54.7 413 82 404C109.3 395 136.7 405 163.8 415C191 425 218 435 245.2 440C272.3 445 299.7 445 327 442C354.3 439 381.7 433 409 415C436.3 397 463.7 367 491 352C518.3 337 545.7 337 573 367C600.3 397 627.7 457 654.8 471C682 485 709 453 736.2 429C763.3 405 790.7 389 818 385C845.3 381 872.7 389 886.3 393L900 397L900 323L886.3 315C872.7 307 845.3 291 818 293C790.7 295 763.3 315 736.2 345C709 375 682 415 654.8 403C627.7 391 600.3 327 573 291C545.7 255 518.3 247 491 258C463.7 269 436.3 299 409 327C381.7 355 354.3 381 327 384C299.7 387 272.3 367 245.2 355C218 343 191 339 163.8 328C136.7 317 109.3 299 82 312C54.7 325 27.3 369 13.7 391L0 413Z" fill="#0059dd"></path><path d="M0 601L13.7 601C27.3 601 54.7 601 82 601C109.3 601 136.7 601 163.8 601C191 601 218 601 245.2 601C272.3 601 299.7 601 327 601C354.3 601 381.7 601 409 601C436.3 601 463.7 601 491 601C518.3 601 545.7 601 573 601C600.3 601 627.7 601 654.8 601C682 601 709 601 736.2 601C763.3 601 790.7 601 818 601C845.3 601 872.7 601 886.3 601L900 601L900 395L886.3 391C872.7 387 845.3 379 818 383C790.7 387 763.3 403 736.2 427C709 451 682 483 654.8 469C627.7 455 600.3 395 573 365C545.7 335 518.3 335 491 350C463.7 365 436.3 395 409 413C381.7 431 354.3 437 327 440C299.7 443 272.3 443 245.2 438C218 433 191 423 163.8 413C136.7 403 109.3 393 82 402C54.7 411 27.3 439 13.7 453L0 467Z" fill="#004cbb"></path></svg>